HIERARCHY
ROOT Hips
{
	OFFSET 0.00 0.00 0.00
	CHANNELS 6 Xposition Yposition Zposition Yrotation Xrotation Zrotation
	JOINT LHipJoint
	{
		OFFSET	0.0000	0.0000	0.0000
		CHANNELS 3 Yrotation Xrotation Zrotation
		JOINT LeftUpLeg
		{
			OFFSET	1.0138	-0.0809	-0.0827
			CHANNELS 3 Yrotation Xrotation Zrotation
			JOINT LeftLeg
			{
				OFFSET	0.4110	-3.9095	0.3245
				CHANNELS 3 Yrotation Xrotation Zrotation
				JOINT LeftFoot
				{
					OFFSET	0.3810	-4.0555	-0.1470
					CHANNELS 3 Yrotation Xrotation Zrotation
					JOINT LeftToeBase
					{
						OFFSET	0.1396	-0.4462	1.3079
						CHANNELS 3 Yrotation Xrotation Zrotation
						End Site
						{
							OFFSET 0.0161 -0.0248 0.1809
						}
					}
				}
			}
		}
	}
	JOINT LowerBack
	{
		OFFSET	0.0000	0.7977	-0.3873
		CHANNELS 3 Yrotation Xrotation Zrotation
		JOINT Spine
		{
			OFFSET	0.0000	1.4131	0.1715
			CHANNELS 3 Yrotation Xrotation Zrotation
			JOINT Spine1
			{
				OFFSET	0.0000	1.4392	-0.1032
				CHANNELS 3 Yrotation Xrotation Zrotation
				JOINT LeftShoulder
				{
					OFFSET	0.2274	1.0382	0.4032
					CHANNELS 3 Yrotation Xrotation Zrotation
					JOINT LeftArm
					{
						OFFSET	1.4730	-0.2267	-0.0231
						CHANNELS 3 Yrotation Xrotation Zrotation
						JOINT LeftForeArm
						{
							OFFSET	1.6131	-1.8059	0.0081
							CHANNELS 3 Yrotation Xrotation Zrotation
							JOINT LeftHand
							{
								OFFSET	1.2197	-1.2423	1.6317
								CHANNELS 3 Yrotation Xrotation Zrotation
								JOINT LThumb
								{
									OFFSET	0.0109	-0.0753	0.4387
									CHANNELS 3 Yrotation Xrotation Zrotation
									End Site
									{
										OFFSET -0.2090 -0.0868 0.2097
									}
								}
								JOINT LeftFingerBase
								{
									OFFSET	0.1071	-0.1567	0.2607
									CHANNELS 3 Yrotation Xrotation Zrotation
									JOINT LeftHandFinger1
									{
										OFFSET	0.1706	-0.2492	0.6830
										CHANNELS 3 Yrotation Xrotation Zrotation
										End Site
										{
											OFFSET 0.0335 -0.1507 0.2071
										}
									}
								}
							}
						}
					}
				}
				JOINT Neck
				{
					OFFSET	0.0000	1.7498	0.2381
					CHANNELS 3 Yrotation Xrotation Zrotation
					JOINT Neck1
					{
						OFFSET	0.0000	0.5043	0.1959
						CHANNELS 3 Yrotation Xrotation Zrotation
						JOINT Head
						{
							OFFSET	0.0000	0.5044	0.1959
							CHANNELS 3 Yrotation Xrotation Zrotation
							End Site
							{
								OFFSET 0.0000 1.4798 -0.0693
							}
						}
					}
				}
				JOINT RightShoulder
				{
					OFFSET	-0.2274	1.0382	0.4032
					CHANNELS 3 Yrotation Xrotation Zrotation
					JOINT RightArm
					{
						OFFSET	-1.4730	-0.2267	-0.0231
						CHANNELS 3 Yrotation Xrotation Zrotation
						JOINT RightForeArm
						{
							OFFSET	-1.6131	-1.8059	0.0081
							CHANNELS 3 Yrotation Xrotation Zrotation
							JOINT RightHand
							{
								OFFSET	-1.2197	-1.2423	1.6317
								CHANNELS 3 Yrotation Xrotation Zrotation
								JOINT RThumb
								{
									OFFSET	-0.0109	-0.0753	0.4387
									CHANNELS 3 Yrotation Xrotation Zrotation
									End Site
									{
										OFFSET 0.2090 -0.0868 0.2097
									}
								}
								JOINT RightFingerBase
								{
									OFFSET	-0.1071	-0.1567	0.2607
									CHANNELS 3 Yrotation Xrotation Zrotation
									JOINT RightHandFinger1
									{
										OFFSET	-0.1706	-0.2492	0.6830
										CHANNELS 3 Yrotation Xrotation Zrotation
										End Site
										{
											OFFSET -0.0335 -0.1507 0.2071
										}
									}
								}
							}
						}
					}
				}
			}
		}
	}
	JOINT RHipJoint
	{
		OFFSET	0.0000	0.0000	0.0000
		CHANNELS 3 Yrotation Xrotation Zrotation
		JOINT RightUpLeg
		{
			OFFSET	-1.0138	-0.0809	-0.0827
			CHANNELS 3 Yrotation Xrotation Zrotation
			JOINT RightLeg
			{
				OFFSET	-0.4110	-3.9095	0.3245
				CHANNELS 3 Yrotation Xrotation Zrotation
				JOINT RightFoot
				{
					OFFSET	-0.3810	-4.0555	-0.1470
					CHANNELS 3 Yrotation Xrotation Zrotation
					JOINT RightToeBase
					{
						OFFSET	-0.1396	-0.4462	1.3079
						CHANNELS 3 Yrotation Xrotation Zrotation
						End Site
						{
							OFFSET -0.0161 -0.0248 0.1809
						}
					}
				}
			}
		}
	}
}
MOTION
Frames: 13
Frame Time: 0.0333333
0.0370 8.4624 0.1063 -10.2992 1.5684 -0.2791 0.0000 -0.0000 0.0000 9.6774 -52.1527 1.4232 155.6872 73.2562 147.9430 -3.2137 -23.0184 14.5568 0.0000 -0.0429 -0.0000 0.0000 -0.0000 0.0000 0.9784 4.1241 1.0285 1.7220 8.2935 -0.4793 -7.3707 2.1873 6.7824 1.7281 -2.1577 -37.8007 15.0226 17.3100 0.1732 -2.4203 14.0234 20.4894 35.1726 -14.8299 9.2836 -22.6589 28.5296 -26.6259 -48.4136 20.3128 -39.3401 0.3139 -7.7666 -0.6659 0.3314 -6.9582 -0.6522 2.9038 -17.4705 -1.7623 16.2986 0.0992 -3.8151 18.0348 -14.5367 22.3264 -15.9812 18.2535 -0.4480 -9.4262 4.0253 -10.4346 -39.6461 6.3555 -2.5789 11.3718 19.9495 15.0280 17.3832 5.3595 11.3418 0.0000 -0.0000 0.0000 -6.8969 -15.6336 13.7875 -13.8819 21.1379 -11.1155 -2.6816 -10.0222 -4.5641 0.0000 0.0000 0.0000 
0.0463 8.4998 0.1391 -10.3535 2.0041 0.1106 0.0000 -0.0000 0.0000 9.3427 -57.0688 0.9360 153.8791 73.2471 145.2535 -2.9271 -26.6146 10.6987 0.0000 -0.0429 0.0000 0.0000 -0.0000 0.0000 1.2073 4.2508 0.8128 1.9379 8.5672 -1.2075 -7.3795 2.1745 6.3348 2.9113 -3.0985 -36.9307 17.6366 19.8490 0.9580 -2.9654 13.9665 20.8080 34.3215 -14.0824 9.7258 -21.5368 28.1264 -25.5476 -45.0448 19.6371 -36.2690 0.4436 -7.8405 -0.6048 0.4614 -7.0321 -0.5910 1.7195 -17.9998 -1.0546 16.3029 0.0980 -3.8152 18.2175 -16.0248 21.7451 -15.2080 17.4935 -0.2251 -9.1615 4.4319 -12.2833 -39.6461 6.3555 -2.5789 11.3718 19.9495 15.0280 17.2047 5.2242 11.1907 0.0000 -0.0000 0.0000 -7.4731 -14.4108 13.0162 -12.7324 20.3328 -10.4481 -2.5701 -10.5606 -4.2953 -0.0000 -0.0001 0.0000 
0.0551 8.5393 0.1747 -10.4137 2.4372 0.5090 0.0000 -0.0000 0.0000 9.0300 -61.6771 0.5647 149.6314 73.4071 140.1854 -2.5301 -29.9099 6.6504 -0.0000 -0.0429 0.0000 0.0000 -0.0000 0.0000 1.4553 4.3941 0.5553 2.1633 8.8776 -1.9751 -7.3916 2.1610 5.8768 4.0728 -4.1558 -36.0941 20.5206 22.5205 1.9490 -3.5847 13.8639 21.0870 33.3826 -13.2340 10.2007 -20.2965 27.6535 -24.3567 -41.3446 18.6833 -32.9053 0.5780 -7.9158 -0.5440 0.5960 -7.1071 -0.5301 0.5068 -18.5525 -0.3124 16.3137 0.0946 -3.8156 18.5025 -17.8019 21.1061 -14.4217 16.7114 -0.0087 -8.9502 4.8620 -14.1214 -39.6462 6.3555 -2.5789 11.3718 19.9495 15.0280 17.0267 5.0884 11.0400 0.0000 -0.0000 0.0000 -8.1639 -13.0322 12.1557 -11.0382 19.3421 -9.4627 -2.7984 -10.9939 -4.1169 0.0000 -0.0000 -0.0000 
0.0650 8.5694 0.2117 -10.4492 2.8527 0.9208 0.0000 -0.0000 0.0000 8.9253 -65.0413 0.4231 142.4792 74.9185 132.0756 -1.5097 -32.2019 3.1008 -0.0000 -0.0429 -0.0000 0.0000 -0.0000 0.0000 1.6938 4.5403 0.2299 2.3880 9.1933 -2.7405 -7.4019 2.1480 5.4290 5.2159 -5.2461 -35.3266 23.3191 24.9750 3.0281 -4.1247 13.8079 21.4128 32.3912 -12.3178 10.6890 -18.9894 27.1231 -23.1025 -37.4864 17.4420 -29.4117 0.7102 -7.9907 -0.4835 0.7284 -7.1819 -0.4696 -0.7028 -19.0676 0.4474 16.3238 0.0917 -3.8158 18.8595 -19.7782 20.4759 -13.6454 15.9304 0.1948 -8.7640 5.3185 -15.9564 -39.6461 6.3555 -2.5789 11.3718 19.9495 15.0280 16.8490 4.9522 10.8898 0.0000 -0.0000 0.0000 -8.9886 -11.8148 11.2995 -9.1870 18.6791 -8.5756 -3.2110 -11.5904 -3.8716 -0.0000 0.0000 0.0000 
0.0745 8.5888 0.2467 -10.4620 3.2795 1.4716 0.0000 -0.0000 0.0000 8.7096 -65.6946 0.1865 119.9761 78.6389 108.1215 1.1317 -33.3111 -0.0711 0.0000 -0.0429 0.0000 0.0000 -0.0000 0.0000 1.8902 4.6759 -0.1813 2.6018 9.4820 -3.4629 -7.4048 2.1360 5.0126 6.3479 -6.2705 -34.6479 25.6211 26.8888 3.9966 -4.4329 13.8940 21.8689 31.3843 -11.3643 11.1714 -17.6643 26.5509 -21.8323 -33.6331 15.9373 -25.9405 0.8331 -8.0642 -0.4236 0.8515 -7.2552 -0.4096 -1.8756 -19.4857 1.2016 16.3283 0.0903 -3.8160 19.2513 -21.8503 19.9092 -12.9016 15.1741 0.3800 -8.5750 5.8060 -17.7966 -39.6461 6.3555 -2.5789 11.3718 19.9495 15.0280 16.6717 4.8155 10.7400 0.0000 -0.0000 0.0000 -9.8194 -10.9550 10.3595 -7.9112 18.4116 -8.0731 -3.2430 -12.3821 -3.5197 0.0000 0.0000 -0.0000 
0.0850 8.6100 0.2792 -10.4171 3.6936 2.0343 0.0000 -0.0000 0.0000 9.0272 -64.2602 -0.7494 79.3833 79.8487 66.3722 4.1120 -32.5574 -1.3339 0.0000 -0.0429 0.0000 0.0000 -0.0000 0.0000 2.0251 4.7840 -0.5922 2.7945 9.7103 -4.1021 -7.3952 2.1259 4.6378 7.5466 -7.1021 -34.0671 26.9747 27.9692 4.5981 -4.4209 14.2133 22.5173 30.3958 -10.4065 11.6310 -16.3678 25.9564 -20.5906 -29.9307 14.2266 -22.6260 0.9397 -8.1348 -0.3640 0.9585 -7.3256 -0.3500 -2.9760 -19.7496 1.9211 16.3235 0.0917 -3.8158 19.6339 -23.9013 19.4456 -12.2121 14.4662 0.5431 -8.3560 6.3303 -19.6508 -39.6462 6.3555 -2.5789 11.3718 19.9495 15.0280 16.4948 4.6783 10.5907 0.0000 -0.0000 0.0000 -10.4257 -9.9857 9.3758 -7.0861 17.7252 -7.6840 -3.0960 -12.9642 -3.1398 0.0000 -0.0000 0.0000 
0.0986 8.6312 0.3042 -10.2808 4.0609 2.4885 0.0000 -0.0000 0.0000 12.3139 -61.6784 -3.8047 42.8193 79.4963 30.3336 6.1636 -26.7266 2.9878 0.0000 -0.0429 0.0000 0.0000 -0.0000 0.0000 2.0834 4.8467 -0.9415 2.9558 9.8426 -4.5977 -7.3723 2.1177 4.2840 8.9818 -7.6569 -33.5739 27.2581 28.1911 4.7270 -4.2096 14.7760 23.3254 29.4583 -9.4782 12.0536 -15.1430 25.3624 -19.4188 -26.5032 12.3966 -19.5800 0.9936 -8.1955 -0.3053 1.0129 -7.3862 -0.2912 -3.8232 -19.5581 2.4723 16.3058 0.0925 -3.7993 19.9591 -25.8027 19.1087 -11.5958 13.8283 0.6818 -8.0845 6.9055 -21.5371 -39.6461 6.3555 -2.5789 11.3718 19.9495 15.0280 16.3183 4.5407 10.4418 0.0000 -0.0000 0.0000 -10.5984 -8.8822 8.4782 -7.0209 16.5812 -7.4954 -2.7521 -13.3500 -2.6927 0.0000 0.0000 -0.0000 
0.1126 8.6515 0.3205 -10.1063 4.3524 2.5652 0.0000 -0.0000 0.0000 13.3290 -60.2000 -4.8918 33.0877 78.9337 20.9621 6.8073 -25.6532 4.2744 -0.0000 -0.0429 -0.0000 0.0000 -0.0000 0.0000 2.1368 4.7980 -1.0245 3.0565 9.7581 -4.8897 -7.3393 2.1120 4.0158 10.0944 -8.1537 -33.1014 26.7998 27.8314 4.5191 -3.4013 15.5105 24.3696 28.6028 -8.6145 12.4274 -14.0306 24.7946 -18.3556 -23.4536 10.5567 -16.8915 0.9847 -8.2489 -0.2434 1.0047 -7.4395 -0.2295 -4.3727 -18.7890 2.7986 16.2746 0.0940 -3.7713 20.1777 -27.4189 18.9068 -11.0643 13.2743 0.7960 -7.7492 7.5482 -23.4758 -39.6461 6.3555 -2.5789 11.3718 19.9495 15.0280 16.1421 4.4026 10.2934 0.0000 -0.0000 0.0000 -10.4126 -7.3237 7.8934 -7.9506 14.5227 -7.3892 -1.7494 -13.1654 -2.2904 0.0000 -0.4253 -0.0000 
0.1253 8.7041 0.3308 -9.8834 4.5942 2.3734 0.0000 -0.0000 0.0000 13.1866 -59.0010 -4.8679 31.5130 78.8036 19.4160 6.6984 -26.8845 4.2580 -0.0000 -0.0490 -0.0000 0.0000 -0.0000 0.0000 2.1816 4.6226 -1.0624 3.1554 9.4205 -5.1231 -7.2849 2.1107 3.8892 10.3426 -8.8110 -32.6137 25.8936 27.1090 4.1158 -1.4967 16.4201 25.8057 27.8596 -7.8512 12.7425 -13.0686 24.2813 -17.4371 -20.8670 8.8310 -14.6301 0.9011 -8.3070 -0.1658 0.9223 -7.4977 -0.1521 -4.6011 -17.1893 2.8409 16.2113 0.0952 -3.7067 20.2428 -28.6106 18.8361 -10.6492 12.8391 0.8817 -7.3005 8.1948 -25.3819 -39.6456 6.1647 -2.2626 11.9260 20.1279 15.5349 16.8473 4.9508 10.8883 0.0000 -0.0000 0.0000 -10.2159 -5.1287 7.3024 -9.4294 11.1526 -6.6410 0.0439 -11.2793 -2.2488 0.0000 -2.8369 0.0000 
0.1388 8.8129 0.3413 -9.6193 4.8141 2.0603 0.0000 -0.0000 0.0000 12.9194 -57.0887 -4.7171 27.3484 77.6241 15.3426 6.6028 -27.6774 4.3574 -0.0000 -0.0552 0.0000 0.0000 -0.0000 0.0000 2.2004 4.3683 -1.1398 3.2534 8.9189 -5.3011 -7.1537 2.1165 3.8306 10.0413 -9.5208 -32.1629 24.4061 25.8906 3.4766 1.6791 17.8461 27.8851 27.2563 -7.2270 12.9938 -12.2934 23.8523 -16.6975 -18.8174 7.3507 -12.8521 0.7662 -8.3502 -0.0926 0.7887 -7.5408 -0.0791 -4.5755 -15.2173 2.7148 16.1088 0.0925 -3.5856 20.1111 -29.2403 18.8882 -10.4516 12.6313 0.9214 -6.7050 8.8597 -27.2032 -39.6459 5.7519 -1.5810 13.1233 20.5048 16.6384 18.6012 6.2623 12.3764 0.0000 -0.0000 0.0000 -9.2897 -5.3652 7.0451 -11.1915 11.5684 -6.4987 0.4425 -6.1073 -1.9587 -0.0009 -7.1646 0.1427 
0.1512 8.9702 0.3499 -9.3188 4.9828 1.5983 0.0000 -0.0000 0.0000 12.5086 -54.5740 -4.3643 22.1647 75.4069 10.3140 6.5248 -27.9934 4.5641 0.0000 -0.0613 0.0000 0.0000 -0.0000 0.0000 2.2403 4.0463 -1.1414 3.4012 8.2848 -5.3706 -6.9954 2.1254 3.8352 9.3567 -10.2667 -31.7234 22.5705 24.3321 2.7286 5.6443 19.3177 30.2548 26.8243 -6.7757 13.1702 -11.7406 23.5377 -16.1704 -17.3746 6.2467 -11.6088 0.6071 -8.3534 -0.0488 0.6306 -7.5442 -0.0354 -4.3655 -13.4204 2.5600 15.9495 0.0839 -3.3950 19.7440 -29.1769 19.0607 -10.2587 12.4280 0.9595 -5.9152 9.4045 -28.9919 -39.6497 5.3063 -0.8446 14.4209 20.8952 17.8453 20.5552 7.6376 14.0469 0.0000 -0.0000 0.0000 -6.3083 -5.5669 6.8317 -11.4691 11.7726 -6.2770 -3.0011 2.0609 -1.0210 -0.3203 -17.5821 2.7969 
0.1649 9.1574 0.3520 -8.9634 5.0704 1.0668 0.0000 -0.0000 0.0000 12.1000 -51.6533 -3.9781 17.4389 72.3393 5.7995 6.4611 -27.8518 4.8894 -0.0000 -0.0674 0.0000 0.0000 -0.0000 0.0000 2.2635 3.6824 -1.0366 3.5418 7.5634 -5.2403 -6.8759 2.1321 3.9172 8.3682 -11.0729 -31.2558 20.6776 22.6619 2.0066 9.7646 20.3144 32.4589 26.5934 -6.5332 13.2633 -11.4461 23.3672 -15.8898 -16.6124 5.6423 -10.9550 0.4404 -8.2890 -0.0637 0.4641 -7.4800 -0.0502 -4.0112 -12.2227 2.4750 15.7224 0.0552 -3.1307 19.0149 -27.9631 19.5449 -9.9564 12.1084 1.0178 -4.8344 9.8091 -30.8127 -39.6584 4.8388 -0.0660 15.7960 21.2840 19.1355 22.6780 9.0326 15.8753 0.0000 -0.0000 0.0000 -3.7676 -5.3341 6.6028 -10.7306 11.3492 -5.7846 -6.6520 11.2243 0.2643 -0.3071 -18.7796 3.3838 
0.1818 9.3521 0.3426 -8.5366 5.0470 0.6972 0.0000 -0.0000 0.0000 11.9001 -48.5068 -3.8838 13.7595 68.7242 2.3703 6.4160 -27.3207 5.3058 0.0000 -0.0735 0.0000 0.0000 -0.0000 0.0000 2.1245 3.2892 -0.9943 3.4098 6.7545 -4.9193 -6.8617 2.1316 4.0902 7.1536 -11.9675 -30.7229 18.9909 21.1211 1.4075 13.3044 20.4272 34.0328 26.5640 -6.5005 13.2766 -11.4074 23.3447 -15.8530 -16.5127 5.5621 -10.8697 0.2309 -8.1405 -0.1579 0.2540 -7.3315 -0.1443 -3.4558 -11.2514 2.3876 15.4594 0.0258 -2.8212 17.9411 -25.6301 20.3838 -9.6472 11.7806 1.0757 -3.5703 10.1856 -32.6674 -39.6732 4.3595 0.7418 17.2251 21.6577 20.4873 24.9349 10.4063 17.8331 0.0000 -0.0000 0.0000 -4.3350 -7.1177 6.5280 -10.7846 16.0252 -6.3421 -7.1250 13.5385 0.7399 -0.0000 -13.2808 0.0000 
